<svg width="108" height="32" viewBox="0 0 108 32" fill="none" xmlns="http://www.w3.org/2000/svg">
<path d="M38.2681 22.9482C37.6792 22.9482 37.2018 22.8103 36.8358 22.5344C36.4697 22.2423 36.1833 21.796 35.9764 21.1956L31.3213 7.97806C31.0667 7.2478 31.1064 6.63115 31.4407 6.12809C31.7908 5.6088 32.4035 5.34915 33.2788 5.34915C33.8677 5.34915 34.3292 5.4952 34.6634 5.7873C34.9976 6.06318 35.2602 6.50133 35.4512 7.10176L39.0081 17.9825H37.8861L41.7057 7.10176C41.9285 6.50133 42.207 6.06318 42.5412 5.7873C42.8754 5.4952 43.3051 5.34915 43.8303 5.34915C44.3555 5.34915 44.7772 5.4952 45.0955 5.7873C45.4138 6.06318 45.6764 6.50944 45.8833 7.1261L49.4641 17.9825H48.5092L52.1617 7.10176C52.3527 6.50133 52.6073 6.06318 52.9256 5.7873C53.2598 5.4952 53.7213 5.34915 54.3102 5.34915C55.0423 5.34915 55.5754 5.6088 55.9096 6.12809C56.2597 6.63115 56.2995 7.2478 56.029 7.97806L51.3262 21.2199C51.1193 21.8041 50.8328 22.2423 50.4668 22.5344C50.1166 22.8103 49.6471 22.9482 49.0583 22.9482C48.4535 22.9482 47.9681 22.8103 47.6021 22.5344C47.252 22.2423 46.9735 21.796 46.7666 21.1956L43.4006 11.5563H43.9974L40.5598 21.2199C40.337 21.8041 40.0505 22.2423 39.7004 22.5344C39.3503 22.8103 38.8729 22.9482 38.2681 22.9482Z" fill="#30343E"/>
<path d="M63.6334 22.9969C62.201 22.9969 60.9597 22.7454 59.9093 22.2423C58.8748 21.723 58.0791 20.9928 57.5221 20.0515C56.9651 19.1103 56.6866 17.9987 56.6866 16.7167C56.6866 15.4834 56.9492 14.4043 57.4743 13.4793C58.0155 12.5381 58.7475 11.8078 59.6706 11.2885C60.6096 10.753 61.6758 10.4853 62.8695 10.4853C63.7448 10.4853 64.5405 10.6313 65.2567 10.9234C65.9728 11.1993 66.5856 11.6131 67.0948 12.1648C67.6041 12.7003 67.9861 13.3495 68.2407 14.1122C68.5112 14.8749 68.6465 15.7268 68.6465 16.668C68.6465 16.9926 68.559 17.236 68.3839 17.3983C68.2089 17.5443 67.9304 17.6174 67.5484 17.6174H60.2435V15.5727H65.5431L65.1612 15.8891C65.1612 15.2887 65.0816 14.8018 64.9225 14.4286C64.7633 14.0554 64.5246 13.7714 64.2063 13.5766C63.9039 13.3819 63.522 13.2845 63.0604 13.2845C62.5671 13.2845 62.1374 13.4063 61.7713 13.6497C61.4212 13.8769 61.1507 14.2176 60.9597 14.672C60.7687 15.1264 60.6732 15.6944 60.6732 16.3759V16.595C60.6732 17.7472 60.9199 18.5748 61.4133 19.0779C61.9225 19.5647 62.7024 19.8081 63.7527 19.8081C64.1029 19.8081 64.5007 19.7676 64.9463 19.6864C65.4079 19.589 65.8455 19.4592 66.2593 19.2969C66.6731 19.1347 67.0312 19.1103 67.3335 19.2239C67.6359 19.3213 67.8667 19.4998 68.0258 19.7594C68.2009 20.0029 68.2964 20.2868 68.3123 20.6114C68.3282 20.9197 68.2566 21.2281 68.0975 21.5364C67.9383 21.8285 67.6757 22.0557 67.3097 22.2179C66.7527 22.4776 66.1559 22.6723 65.5193 22.8022C64.8986 22.932 64.27 22.9969 63.6334 22.9969Z" fill="#30343E"/>
<path d="M78.6892 22.9969C77.7821 22.9969 76.9704 22.7778 76.2543 22.3397C75.554 21.8853 75.0925 21.293 74.8697 20.5627L75.1323 19.5647V20.7574C75.1323 21.4715 74.9493 22.0151 74.5832 22.3883C74.2331 22.7616 73.7238 22.9482 73.0554 22.9482C72.3711 22.9482 71.8459 22.7616 71.4798 22.3883C71.1297 22.0151 70.9547 21.4715 70.9547 20.7574V7.53991C70.9547 6.82588 71.1377 6.28225 71.5037 5.90901C71.8698 5.53577 72.387 5.34915 73.0554 5.34915C73.7397 5.34915 74.2649 5.53577 74.631 5.90901C75.0129 6.28225 75.2039 6.82588 75.2039 7.53991V12.749H74.9174C75.1562 12.0837 75.6256 11.5401 76.3259 11.1181C77.0261 10.6962 77.8139 10.4853 78.6892 10.4853C79.7078 10.4853 80.599 10.7368 81.3629 11.2398C82.1427 11.7429 82.7475 12.4569 83.1772 13.3819C83.6069 14.3069 83.8217 15.4266 83.8217 16.7411C83.8217 18.0231 83.6069 19.1347 83.1772 20.0759C82.7475 21.0171 82.1427 21.7392 81.3629 22.2423C80.599 22.7454 79.7078 22.9969 78.6892 22.9969ZM77.3524 19.8081C77.7821 19.8081 78.1561 19.7026 78.4744 19.4917C78.8086 19.2645 79.0712 18.9318 79.2622 18.4937C79.4531 18.0393 79.5486 17.4551 79.5486 16.7411C79.5486 15.6538 79.3417 14.8749 78.928 14.4043C78.5142 13.9174 77.989 13.674 77.3524 13.674C76.9227 13.674 76.5407 13.7795 76.2065 13.9905C75.8723 14.2014 75.6097 14.5341 75.4187 14.9885C75.2278 15.4266 75.1323 16.0108 75.1323 16.7411C75.1323 17.8121 75.3392 18.591 75.753 19.0779C76.1667 19.5647 76.6999 19.8081 77.3524 19.8081Z" fill="#30343E"/>
<path d="M90.6997 22.9969C89.1719 22.9969 88.042 22.5831 87.3099 21.7555C86.5937 20.9116 86.2356 19.6458 86.2356 17.9582V7.53991C86.2356 6.82588 86.4186 6.28225 86.7847 5.90901C87.1507 5.53577 87.668 5.34915 88.3364 5.34915C89.0207 5.34915 89.5459 5.53577 89.9119 5.90901C90.2939 6.28225 90.4849 6.82588 90.4849 7.53991V17.8121C90.4849 18.4125 90.5963 18.8507 90.8191 19.1266C91.0578 19.4024 91.3602 19.5404 91.7262 19.5404C91.8376 19.5404 91.949 19.5322 92.0604 19.516C92.1877 19.4836 92.323 19.4592 92.4662 19.443C92.7368 19.443 92.9357 19.5485 93.063 19.7594C93.2063 19.9704 93.2779 20.4004 93.2779 21.0495C93.2779 21.6175 93.1665 22.0476 92.9437 22.3397C92.7209 22.6155 92.3787 22.794 91.9172 22.8752C91.7899 22.8914 91.6069 22.9157 91.3681 22.9482C91.1294 22.9807 90.9066 22.9969 90.6997 22.9969Z" fill="#30343E"/>
<path d="M98.0997 27.3297C97.6063 27.3297 97.2085 27.1999 96.9061 26.9402C96.6037 26.6806 96.4127 26.3398 96.3332 25.9179C96.2695 25.496 96.3411 25.0497 96.548 24.5791L98.1475 21.0495V22.8022L94.0653 13.2845C93.8584 12.7977 93.7868 12.3433 93.8505 11.9214C93.93 11.4995 94.1449 11.1668 94.495 10.9234C94.8451 10.6638 95.3226 10.5339 95.9273 10.5339C96.4366 10.5339 96.8424 10.6556 97.1448 10.8991C97.4631 11.1262 97.7496 11.5806 98.0042 12.2622L100.391 18.591H99.5798L102.11 12.2379C102.365 11.5725 102.651 11.1262 102.97 10.8991C103.304 10.6556 103.749 10.5339 104.306 10.5339C104.784 10.5339 105.166 10.6638 105.452 10.9234C105.739 11.1668 105.914 11.4995 105.978 11.9214C106.041 12.3433 105.97 12.7977 105.763 13.2845L100.344 25.6988C100.057 26.3479 99.7389 26.778 99.3888 26.9889C99.0546 27.2161 98.6249 27.3297 98.0997 27.3297Z" fill="#30343E"/>
<path fill-rule="evenodd" clip-rule="evenodd" d="M10.4916 24.2638C8.99044 22.8855 8.16923 20.9859 7.44461 19.092C7.03468 18.0206 7.57919 16.8725 8.5624 16.4132C9.54527 15.9562 10.7669 16.5614 11.1503 17.5626C11.4206 18.2694 11.7122 18.961 12.0221 19.6496C12.0399 19.6891 12.0527 19.7182 12.0616 19.7394C12.0664 19.7469 12.0723 19.7565 12.0795 19.7686C12.1078 19.8156 12.1356 19.8629 12.1633 19.9101C12.2138 19.9963 12.2643 20.0823 12.3183 20.167C12.4945 20.4424 12.6847 20.7118 12.8976 20.9589C12.8832 20.9402 12.915 20.9702 12.9609 21.0133C12.9926 21.0431 13.0309 21.0791 13.0654 21.1099C13.136 21.1721 13.2104 21.2285 13.2847 21.2849C13.3481 21.3329 13.4113 21.3809 13.4722 21.4324C13.478 21.4373 13.4831 21.4418 13.4875 21.4458C13.5036 21.453 13.5229 21.4619 13.5457 21.4728L13.579 21.4885C13.7242 21.5571 13.8657 21.6239 14.0133 21.6877C14.0376 21.6982 14.0582 21.7074 14.0757 21.7155C14.0958 21.7177 14.1196 21.7207 14.1478 21.7248C14.1935 21.7311 14.2394 21.7369 14.2854 21.7428C14.3645 21.7528 14.4437 21.7629 14.5217 21.7754C14.5766 21.771 14.6311 21.7645 14.6853 21.7559C14.7219 21.7511 14.7549 21.7447 14.7832 21.7379C14.8165 21.7208 14.8581 21.6976 14.8974 21.6758C15.0131 21.6115 15.1084 21.5585 14.9117 21.7048C15.0025 21.6377 15.0926 21.5708 15.182 21.5012C15.2008 21.4806 15.2229 21.4552 15.2474 21.4249C15.3297 21.323 15.4051 21.2153 15.4784 21.1062C15.2122 21.5007 15.5057 20.9472 15.6072 20.7856C15.6255 20.7052 15.6352 20.6176 15.6439 20.5382C15.6475 20.506 15.6509 20.4751 15.6547 20.4466C15.6575 20.4256 15.6615 20.3649 15.6658 20.3022C15.6672 20.2804 15.6687 20.2584 15.6702 20.2378C15.6687 20.21 15.6673 20.1798 15.6658 20.1504C15.6626 20.0829 15.6595 20.0193 15.6573 19.9987C15.6437 19.867 15.6238 19.7361 15.5994 19.6061C15.6164 19.706 15.5736 19.5556 15.5385 19.4323C15.5216 19.3727 15.5064 19.3194 15.5007 19.3037C15.4498 19.1638 15.3929 19.0264 15.3313 18.8906C15.3119 18.8465 15.2919 18.8026 15.2712 18.7591C15.2644 18.7476 15.2561 18.7334 15.2462 18.7164C15.2005 18.6521 15.159 18.5842 15.1175 18.5162C15.0809 18.4562 15.0442 18.3961 15.0044 18.3383C14.8909 18.1735 14.7702 18.0152 14.6441 17.8615C14.538 17.7511 14.4368 17.6342 14.341 17.5109C14.3388 17.5085 14.3365 17.506 14.3343 17.5035L14.3349 17.5031C13.6411 16.6054 13.9482 15.2993 14.7633 14.6207C15.6689 13.8674 16.833 14.2659 17.5438 15.0451C17.5456 15.0463 17.5474 15.0476 17.5493 15.0489C17.5597 15.0539 17.5702 15.0587 17.5807 15.0635C17.6169 15.0705 17.6697 15.0825 17.744 15.1012C17.7557 15.1042 17.7663 15.1071 17.7758 15.1098C17.793 15.1082 17.82 15.1068 17.8521 15.1051C17.8997 15.1026 17.9586 15.0996 18.0135 15.0944C18.0167 15.0933 18.0199 15.0923 18.0232 15.0912C18.0914 15.0693 18.1578 15.0449 18.2236 15.0168C18.2843 14.992 18.3438 14.9647 18.4023 14.9355C18.417 14.9247 18.4322 14.9132 18.4474 14.9013C18.4391 14.904 18.4759 14.8587 18.5577 14.7651C18.5951 14.7178 18.6311 14.6691 18.6652 14.6194C18.7011 14.5486 18.7344 14.4756 18.7641 14.4009C18.791 14.3407 18.8154 14.2794 18.8378 14.2171C18.8455 14.1752 18.8535 14.1334 18.8614 14.0917C18.8887 13.9485 18.9159 13.806 18.9312 13.66C18.9365 13.6072 18.934 13.4762 18.9324 13.3897C18.9304 13.2835 18.9297 13.2442 18.9462 13.499C18.9441 13.4655 18.9421 13.4321 18.9401 13.3988C18.9313 13.2525 18.9226 13.107 18.9051 12.9609C18.8843 12.7985 18.8547 12.6396 18.8247 12.4784C18.8218 12.4624 18.8188 12.4464 18.8158 12.4304C18.8721 12.7374 18.8268 12.5546 18.7878 12.3974C18.7711 12.3299 18.7555 12.2671 18.7497 12.2499C18.6348 11.9051 18.4876 11.5803 18.3385 11.2516C18.3308 11.2345 18.323 11.2174 18.3152 11.2002C18.2747 11.1213 18.2486 11.07 18.2369 11.0461C18.2114 11.0008 18.1855 10.9556 18.1588 10.9107C18.0634 10.7465 17.9654 10.5842 17.8638 10.4236C17.5763 9.96666 17.2697 9.52335 16.9632 9.08027C16.8195 8.87248 16.6758 8.66473 16.5342 8.45565C15.556 7.01361 14.7579 5.53239 14.3502 3.82415L4.92978 7.20527C2.64734 8.02447 1.447 10.5791 2.24874 12.9113L7.09431 27.0064C7.89605 29.3386 10.3963 30.565 12.6787 29.7458L26.4734 24.7947C28.7558 23.9755 29.9561 21.4209 29.1544 19.0887L24.3088 4.99359C23.5071 2.66144 21.0069 1.43496 18.7244 2.25416L18.0597 2.49273C18.1283 2.72552 18.2095 2.98383 18.2716 3.17425C18.294 3.25254 18.3126 3.30158 18.3343 3.35852C18.3461 3.38973 18.3589 3.42331 18.3736 3.46539C18.4558 3.70401 18.55 3.93753 18.6535 4.16789C18.6624 4.18713 18.6978 4.25666 18.7387 4.33722C18.8321 4.52079 18.9545 4.76159 18.859 4.5948C18.9457 4.74725 19.0345 4.89808 19.1255 5.04729C19.4474 5.57493 19.7983 6.08173 20.1491 6.58847C20.3392 6.86316 20.5294 7.13783 20.7149 7.41579C21.8539 9.12139 22.8853 11.0536 22.9095 13.1842C22.9361 15.5248 21.9596 17.7725 19.8197 18.788C19.7185 18.836 19.6162 18.88 19.5129 18.92C19.6263 19.5113 19.668 20.12 19.6281 20.7357C19.4966 22.768 18.2135 24.7423 16.3754 25.5209C14.4008 26.3582 12.041 25.6867 10.4916 24.2638ZM18.6162 14.7406C18.604 14.7671 18.539 14.8276 18.4691 14.8841C18.4954 14.8604 18.5444 14.8126 18.6162 14.7406ZM18.3886 14.9454C18.386 14.9469 18.3834 14.9483 18.3808 14.9497C18.3473 14.968 18.3138 14.9862 18.2802 15.0048C18.2934 15.0081 18.3369 14.9824 18.3886 14.9454ZM18.1823 15.0533C18.1687 15.071 18.1168 15.0824 18.0537 15.0901C18.0883 15.0803 18.1312 15.0681 18.1823 15.0533ZM15.113 21.5681C15.1109 21.5679 15.1292 21.5481 15.1745 21.5095C15.1378 21.549 15.1151 21.5684 15.113 21.5681ZM14.89 21.7012C14.8863 21.7054 14.8495 21.7213 14.7906 21.736C14.8642 21.7043 14.8936 21.6969 14.89 21.7012Z" fill="#30343E"/>
</svg>
