<svg width="80" height="24" viewBox="0 0 80 24" fill="none" xmlns="http://www.w3.org/2000/svg">
<path d="M28.5036 16.963C28.0733 16.963 27.7244 16.8645 27.4569 16.6674C27.1894 16.4588 26.9801 16.14 26.8289 15.7111L23.4271 6.27003C23.241 5.74842 23.2701 5.30795 23.5143 4.94862C23.7702 4.5777 24.2179 4.39224 24.8576 4.39224C25.2879 4.39224 25.6252 4.49656 25.8694 4.70521C26.1136 4.90226 26.3055 5.21522 26.4451 5.6441L29.0444 13.4161H28.2245L31.0157 5.6441C31.1785 5.21522 31.382 4.90226 31.6263 4.70521C31.8705 4.49656 32.1845 4.39224 32.5683 4.39224C32.9521 4.39224 33.2603 4.49656 33.4929 4.70521C33.7255 4.90226 33.9174 5.22102 34.0686 5.66149L36.6853 13.4161H35.9875L38.6566 5.6441C38.7962 5.21522 38.9822 4.90226 39.2148 4.70521C39.4591 4.49656 39.7964 4.39224 40.2267 4.39224C40.7616 4.39224 41.1512 4.5777 41.3955 4.94862C41.6513 5.30795 41.6804 5.74842 41.4827 6.27003L38.046 15.7285C37.8948 16.1458 37.6855 16.4588 37.418 16.6674C37.1622 16.8645 36.8191 16.963 36.3888 16.963C35.9468 16.963 35.5921 16.8645 35.3246 16.6674C35.0687 16.4588 34.8652 16.14 34.714 15.7111L32.2543 8.82591H32.6904L30.1783 15.7285C30.0155 16.1458 29.8062 16.4588 29.5503 16.6674C29.2944 16.8645 28.9455 16.963 28.5036 16.963Z" fill="white"/>
<path d="M47.0398 16.9978C45.9931 16.9978 45.0859 16.8181 44.3183 16.4588C43.5624 16.0878 42.9809 15.5662 42.5738 14.8939C42.1668 14.2217 41.9633 13.4276 41.9633 12.5119C41.9633 11.631 42.1552 10.8602 42.5389 10.1995C42.9344 9.52718 43.4693 9.00557 44.1439 8.63465C44.8301 8.25214 45.6093 8.06088 46.4815 8.06088C47.1212 8.06088 47.7027 8.16521 48.226 8.37385C48.7494 8.5709 49.1971 8.86648 49.5693 9.26058C49.9415 9.6431 50.2206 10.1067 50.4067 10.6515C50.6044 11.1963 50.7032 11.8049 50.7032 12.4772C50.7032 12.709 50.6393 12.8829 50.5113 12.9988C50.3834 13.1031 50.1799 13.1553 49.9007 13.1553H44.5626V11.6948H48.4354L48.1562 11.9208C48.1562 11.4919 48.0981 11.1442 47.9818 10.8776C47.8655 10.611 47.691 10.4081 47.4584 10.269C47.2375 10.1299 46.9584 10.0604 46.6211 10.0604C46.2606 10.0604 45.9465 10.1473 45.6791 10.3212C45.4232 10.4835 45.2255 10.7269 45.0859 11.0514C44.9464 11.376 44.8766 11.7817 44.8766 12.2685V12.425C44.8766 13.248 45.0568 13.8391 45.4174 14.1985C45.7895 14.5462 46.3594 14.7201 47.127 14.7201C47.3828 14.7201 47.6736 14.6911 47.9992 14.6331C48.3365 14.5636 48.6563 14.4709 48.9587 14.355C49.2611 14.239 49.5228 14.2217 49.7437 14.3028C49.9647 14.3723 50.1333 14.4998 50.2496 14.6853C50.3776 14.8592 50.4474 15.062 50.459 15.2938C50.4706 15.5141 50.4183 15.7343 50.302 15.9545C50.1857 16.1632 49.9938 16.3255 49.7263 16.4414C49.3192 16.6268 48.8831 16.7659 48.4179 16.8587C47.9644 16.9514 47.505 16.9978 47.0398 16.9978Z" fill="white"/>
<path d="M58.0421 16.9978C57.3792 16.9978 56.7861 16.8413 56.2627 16.5283C55.751 16.2038 55.4137 15.7807 55.2509 15.2591L55.4428 14.5462V15.3982C55.4428 15.9082 55.3091 16.2965 55.0416 16.5631C54.7857 16.8297 54.4136 16.963 53.9251 16.963C53.425 16.963 53.0412 16.8297 52.7737 16.5631C52.5179 16.2965 52.3899 15.9082 52.3899 15.3982V5.95707C52.3899 5.44705 52.5237 5.05874 52.7912 4.79214C53.0587 4.52554 53.4366 4.39224 53.9251 4.39224C54.4252 4.39224 54.809 4.52554 55.0765 4.79214C55.3556 5.05874 55.4952 5.44705 55.4952 5.95707V9.67787H55.2858C55.4603 9.20263 55.8033 8.81432 56.3151 8.51294C56.8268 8.21157 57.4025 8.06088 58.0421 8.06088C58.7864 8.06088 59.4377 8.24055 59.996 8.59988C60.5658 8.95921 61.0078 9.46923 61.3218 10.1299C61.6358 10.7906 61.7928 11.5904 61.7928 12.5293C61.7928 13.445 61.6358 14.239 61.3218 14.9113C61.0078 15.5836 60.5658 16.0994 59.996 16.4588C59.4377 16.8181 58.7864 16.9978 58.0421 16.9978ZM57.0652 14.7201C57.3792 14.7201 57.6525 14.6447 57.8851 14.494C58.1293 14.3318 58.3212 14.0941 58.4608 13.7812C58.6004 13.4566 58.6701 13.0393 58.6701 12.5293C58.6701 11.7527 58.519 11.1963 58.2166 10.8602C57.9142 10.5124 57.5304 10.3386 57.0652 10.3386C56.7512 10.3386 56.4721 10.4139 56.2278 10.5646C55.9836 10.7153 55.7917 10.9529 55.6522 11.2775C55.5126 11.5904 55.4428 12.0077 55.4428 12.5293C55.4428 13.2943 55.594 13.8507 55.8964 14.1985C56.1988 14.5462 56.5884 14.7201 57.0652 14.7201Z" fill="white"/>
<path d="M66.819 16.9978C65.7025 16.9978 64.8768 16.7022 64.3418 16.111C63.8185 15.5083 63.5568 14.6042 63.5568 13.3987V5.95707C63.5568 5.44705 63.6905 5.05874 63.958 4.79214C64.2255 4.52554 64.6035 4.39224 65.092 4.39224C65.5921 4.39224 65.9758 4.52554 66.2433 4.79214C66.5225 5.05874 66.662 5.44705 66.662 5.95707V13.2944C66.662 13.7232 66.7434 14.0362 66.9062 14.2332C67.0807 14.4303 67.3017 14.5288 67.5692 14.5288C67.6506 14.5288 67.732 14.523 67.8134 14.5114C67.9064 14.4883 68.0053 14.4709 68.1099 14.4593C68.3077 14.4593 68.453 14.5346 68.5461 14.6853C68.6507 14.836 68.7031 15.1432 68.7031 15.6068C68.7031 16.0125 68.6217 16.3197 68.4588 16.5283C68.296 16.7254 68.046 16.8529 67.7087 16.9108C67.6157 16.9224 67.4819 16.9398 67.3075 16.963C67.133 16.9862 66.9702 16.9978 66.819 16.9978Z" fill="white"/>
<path d="M72.2267 20.0926C71.8662 20.0926 71.5754 19.9999 71.3545 19.8144C71.1335 19.629 70.9939 19.3856 70.9358 19.0842C70.8893 18.7828 70.9416 18.4641 71.0928 18.1279L72.2616 15.6068V16.8587L69.2785 10.0604C69.1273 9.71264 69.075 9.38809 69.1215 9.08671C69.1796 8.78534 69.3366 8.54772 69.5925 8.37385C69.8484 8.18839 70.1973 8.09566 70.6392 8.09566C71.0114 8.09566 71.3079 8.18259 71.5289 8.35646C71.7615 8.51874 71.9708 8.8433 72.1569 9.33013L73.9014 13.8507H73.3083L75.1575 9.31274C75.3435 8.8375 75.5529 8.51874 75.7855 8.35646C76.0297 8.18259 76.3554 8.09566 76.7624 8.09566C77.1113 8.09566 77.3904 8.18839 77.5998 8.37385C77.8091 8.54772 77.937 8.78534 77.9836 9.08671C78.0301 9.38809 77.9777 9.71264 77.8266 10.0604L73.8665 18.9277C73.6572 19.3914 73.4246 19.6985 73.1687 19.8492C72.9245 20.0115 72.6105 20.0926 72.2267 20.0926Z" fill="white"/>
<path fill-rule="evenodd" clip-rule="evenodd" d="M8.20538 17.9027C7.10838 16.9182 6.50826 15.5614 5.97873 14.2086C5.67917 13.4433 6.07708 12.6232 6.79558 12.2952C7.51383 11.9687 8.40659 12.401 8.68676 13.1162C8.88427 13.621 9.09735 14.115 9.32384 14.6069C9.3368 14.635 9.34616 14.6559 9.35272 14.671C9.3562 14.6764 9.3605 14.6832 9.36577 14.6918C9.38647 14.7255 9.40673 14.7592 9.42698 14.7929C9.46391 14.8545 9.50082 14.916 9.54026 14.9764C9.66902 15.1731 9.80803 15.3656 9.96362 15.5421C9.95306 15.5287 9.97634 15.5501 10.0099 15.581C10.033 15.6022 10.061 15.628 10.0862 15.6499C10.1378 15.6944 10.1922 15.7347 10.2465 15.775C10.2928 15.8092 10.339 15.8435 10.3835 15.8803C10.3877 15.8838 10.3915 15.887 10.3947 15.8899C10.4065 15.895 10.4205 15.9013 10.4372 15.9091L10.4615 15.9203C10.5676 15.9693 10.671 16.0171 10.779 16.0627C10.7967 16.0701 10.8118 16.0767 10.8246 16.0825C10.8392 16.0841 10.8566 16.0862 10.8772 16.0891C10.9106 16.0936 10.9442 16.0978 10.9778 16.102C11.0356 16.1092 11.0935 16.1163 11.1504 16.1253C11.1906 16.1221 11.2304 16.1175 11.27 16.1114C11.2967 16.108 11.3209 16.1033 11.3415 16.0985C11.3659 16.0863 11.3963 16.0697 11.425 16.0541C11.5098 16.0081 11.5795 15.9702 11.4344 16.0756C11.5011 16.0275 11.5673 15.9794 11.633 15.9295C11.6468 15.9147 11.6629 15.8966 11.6808 15.8749C11.7409 15.8021 11.796 15.7252 11.8496 15.6473C11.6551 15.9291 11.8695 15.5337 11.9437 15.4183C11.9571 15.3609 11.9641 15.2983 11.9705 15.2416C11.9731 15.2186 11.9756 15.1965 11.9784 15.1761C11.9804 15.1611 11.9834 15.1178 11.9865 15.073C11.9876 15.0575 11.9887 15.0417 11.9897 15.027C11.9887 15.0072 11.9876 14.9856 11.9866 14.9646C11.9842 14.9163 11.9819 14.871 11.9803 14.8562C11.9704 14.7621 11.9558 14.6687 11.938 14.5758C11.9504 14.6472 11.9191 14.5397 11.8935 14.4516C11.8811 14.409 11.87 14.371 11.8658 14.3598C11.8286 14.2598 11.7871 14.1617 11.7421 14.0647C11.7279 14.0332 11.7133 14.0019 11.6981 13.9708C11.6932 13.9626 11.6871 13.9524 11.6799 13.9403C11.6465 13.8943 11.6162 13.8458 11.5858 13.7973C11.5591 13.7544 11.5323 13.7115 11.5032 13.6702C11.4203 13.5525 11.332 13.4394 11.2399 13.3296C11.1623 13.2507 11.0884 13.1672 11.0184 13.0792C11.0168 13.0775 11.0151 13.0757 11.0135 13.0739L11.0139 13.0736C10.5069 12.4325 10.7314 11.4995 11.327 11.0148C11.9888 10.4767 12.8395 10.7613 13.3589 11.3179C13.3602 11.3188 13.3615 11.3197 13.3629 11.3207C13.3705 11.3242 13.3782 11.3277 13.3859 11.3311C13.4123 11.3361 13.4509 11.3446 13.5052 11.358C13.5138 11.3601 13.5215 11.3622 13.5285 11.3642C13.541 11.363 13.5608 11.362 13.5842 11.3608C13.619 11.359 13.662 11.3568 13.7022 11.3531C13.7045 11.3524 13.7068 11.3516 13.7093 11.3509C13.7591 11.3352 13.8076 11.3178 13.8557 11.2977C13.9 11.28 13.9435 11.2605 13.9863 11.2396C13.997 11.2319 14.0082 11.2237 14.0193 11.2152C14.0132 11.2172 14.04 11.1848 14.0999 11.1179C14.1272 11.0841 14.1535 11.0494 14.1784 11.0139C14.2046 10.9633 14.229 10.9111 14.2507 10.8578C14.2703 10.8148 14.2881 10.771 14.3046 10.7265C14.3102 10.6965 14.316 10.6667 14.3218 10.6369C14.3417 10.5347 14.3616 10.4329 14.3728 10.3286C14.3767 10.2909 14.3749 10.1973 14.3737 10.1355C14.3722 10.0596 14.3716 10.0316 14.3837 10.2135C14.3822 10.1897 14.3807 10.1658 14.3793 10.142C14.3729 10.0375 14.3665 9.93358 14.3537 9.8292C14.3385 9.71323 14.3169 9.5997 14.295 9.48457C14.2928 9.47316 14.2906 9.46173 14.2885 9.45029C14.3296 9.66957 14.2965 9.53897 14.268 9.42668C14.2558 9.37849 14.2444 9.33366 14.2401 9.32134C14.1561 9.07503 14.0486 8.84308 13.9397 8.60826C13.934 8.59605 13.9283 8.58382 13.9226 8.57159C13.893 8.51522 13.874 8.47855 13.8654 8.46148C13.8467 8.42914 13.8278 8.39688 13.8084 8.3648C13.7386 8.24749 13.667 8.13156 13.5927 8.01688C13.3827 7.69047 13.1586 7.37382 12.9347 7.05733C12.8296 6.90891 12.7246 6.76052 12.6211 6.61118C11.9063 5.58115 11.3231 4.52314 11.0251 3.30298L4.14099 5.71805C2.47306 6.30319 1.59589 8.12796 2.18177 9.79378L5.72277 19.8617C6.30865 21.5275 8.13574 22.4036 9.80367 21.8185L19.8844 18.2819C21.5523 17.6968 22.4295 15.872 21.8436 14.2062L18.3026 4.13828C17.7167 2.47246 15.8896 1.5964 14.2217 2.18154L13.7359 2.35196C13.786 2.51824 13.8454 2.70274 13.8908 2.83875C13.9071 2.89467 13.9207 2.9297 13.9365 2.97037C13.9452 2.99266 13.9545 3.01665 13.9653 3.04671C14.0254 3.21715 14.0942 3.38395 14.1699 3.54849C14.1763 3.56224 14.2022 3.61191 14.2321 3.66946C14.3003 3.80058 14.3898 3.97256 14.32 3.85344C14.3834 3.96233 14.4483 4.07006 14.5148 4.17663C14.75 4.55351 15.0064 4.91551 15.2627 5.27746C15.4017 5.47367 15.5407 5.66987 15.6763 5.86842C16.5086 7.08671 17.2623 8.46685 17.28 9.98868C17.2995 11.6606 16.5859 13.266 15.0221 13.9915C14.9481 14.0257 14.8734 14.0571 14.7979 14.0857C14.8807 14.5081 14.9112 14.9429 14.882 15.3827C14.786 16.8343 13.8483 18.2445 12.5051 18.8006C11.0621 19.3987 9.33765 18.919 8.20538 17.9027ZM14.1426 11.1004C14.1337 11.1194 14.0862 11.1626 14.0351 11.2029C14.0543 11.186 14.0901 11.1518 14.1426 11.1004ZM13.9762 11.2468C13.9744 11.2478 13.9725 11.2488 13.9706 11.2498C13.9461 11.2628 13.9216 11.2759 13.8971 11.2891C13.9067 11.2915 13.9385 11.2731 13.9762 11.2468ZM13.8255 11.3238C13.8155 11.3365 13.7776 11.3446 13.7315 11.35C13.7568 11.3431 13.7881 11.3343 13.8255 11.3238ZM11.5826 15.9772C11.581 15.9771 11.5944 15.963 11.6275 15.9353C11.6007 15.9636 11.5841 15.9774 11.5826 15.9772ZM11.4196 16.0723C11.4169 16.0753 11.39 16.0866 11.3469 16.0972C11.4007 16.0745 11.4222 16.0693 11.4196 16.0723Z" fill="white"/>
</svg>
